<?xml version="1.0" encoding="UTF-8" standalone="no"?>
<svg
   width="128"
   height="128"
   version="1.1"
   id="svg119"
   sodipodi:docname="rename-tool.svg"
   inkscape:version="1.2-dev (efe07b5ba6, 2021-04-11)"
   xmlns:inkscape="http://www.inkscape.org/namespaces/inkscape"
   xmlns:sodipodi="http://sodipodi.sourceforge.net/DTD/sodipodi-0.dtd"
   xmlns:xlink="http://www.w3.org/1999/xlink"
   xmlns="http://www.w3.org/2000/svg"
   xmlns:svg="http://www.w3.org/2000/svg">
  <sodipodi:namedview
     id="namedview121"
     pagecolor="#ffffff"
     bordercolor="#666666"
     borderopacity="1.0"
     objecttolerance="10.0"
     gridtolerance="10.0"
     guidetolerance="10.0"
     inkscape:pageshadow="2"
     inkscape:pageopacity="0.0"
     inkscape:pagecheckerboard="0"
     showgrid="false"
     inkscape:snap-bbox="true"
     inkscape:zoom="2.8284271"
     inkscape:cx="36.239223"
     inkscape:cy="62.04862"
     inkscape:window-width="1366"
     inkscape:window-height="704"
     inkscape:window-x="0"
     inkscape:window-y="0"
     inkscape:window-maximized="1"
     inkscape:current-layer="svg119"
     inkscape:snap-intersection-paths="true"
     inkscape:snap-smooth-nodes="true"
     inkscape:snap-midpoints="true"
     inkscape:bbox-paths="true"
     inkscape:bbox-nodes="true"
     inkscape:snap-bbox-edge-midpoints="true"
     inkscape:snap-bbox-midpoints="true"
     inkscape:object-paths="true">
    <inkscape:grid
       type="xygrid"
       id="grid938" />
  </sodipodi:namedview>
  <defs
     id="defs95">
    <linearGradient
       id="p"
       gradientUnits="userSpaceOnUse"
       x1="384"
       y1="120"
       x2="416"
       y2="120"
       gradientTransform="matrix(0.25,0,0,0.25,-130.742,55)">
      <stop
         offset="0"
         stop-color="#deddda"
         id="stop2" />
      <stop
         offset=".511"
         stop-color="#fff"
         id="stop4" />
      <stop
         offset="1"
         stop-color="#c0bfbc"
         id="stop6" />
    </linearGradient>
    <filter
       id="a"
       filterUnits="objectBoundingBox"
       x="0"
       y="0"
       width="1"
       height="1">
      <feColorMatrix
         in="SourceGraphic"
         values="0 0 0 0 1 0 0 0 0 1 0 0 0 0 1 0 0 0 1 0"
         id="feColorMatrix9" />
    </filter>
    <mask
       id="q">
      <g
         filter="url(#a)"
         id="g14">
        <path
           fill-opacity=".187"
           d="M0 0h128v128H0z"
           id="path12" />
      </g>
    </mask>
    <clipPath
       id="b">
      <path
         d="M0 0h128v128H0z"
         id="path17" />
    </clipPath>
    <g
       id="f"
       clip-path="url(#b)">
      <path
         d="M22 8h2v102h-2zm0 0"
         fill="#fff"
         id="path20" />
    </g>
    <linearGradient
       id="e"
       gradientUnits="userSpaceOnUse"
       x1="384"
       y1="120"
       x2="416"
       y2="120"
       gradientTransform="matrix(.25 0 0 .25 4 53)">
      <stop
         offset="0"
         stop-color="#deddda"
         id="stop23" />
      <stop
         offset=".511"
         stop-color="#fff"
         id="stop25" />
      <stop
         offset="1"
         stop-color="#c0bfbc"
         id="stop27" />
    </linearGradient>
    <mask
       id="g">
      <g
         filter="url(#a)"
         id="g32">
        <path
           fill-opacity=".187"
           d="M0 0h128v128H0z"
           id="path30" />
      </g>
    </mask>
    <clipPath
       id="c">
      <path
         d="M0 0h128v128H0z"
         id="path35" />
    </clipPath>
    <clipPath
       id="d">
      <path
         d="M0 0h128v128H0z"
         id="path38" />
    </clipPath>
    <g
       id="i"
       clip-path="url(#d)">
      <path
         d="M108 24c4.418 0 8 3.582 8 8.004v7.992a8.001 8.001 0 1 1-16 0v-7.992A8.001 8.001 0 0 1 108 24zm0 0"
         fill="#f8e45c"
         id="path41" />
      <path
         d="M108 40c4.418 0 8 3.582 8 8.004v7.992a8.001 8.001 0 1 1-16 0v-7.992A8.001 8.001 0 0 1 108 40zm0 0"
         fill="#2ec27e"
         id="path43" />
      <path
         d="M108 56c4.418 0 8 3.582 8 8.004v7.992a8.001 8.001 0 1 1-16 0v-7.992A8.001 8.001 0 0 1 108 56zm0 0"
         fill="#c061cb"
         id="path45" />
      <path
         d="M108 72c4.418 0 8 3.582 8 8.004v7.992a8.001 8.001 0 1 1-16 0v-7.992A8.001 8.001 0 0 1 108 72zm0 0"
         fill="#f66151"
         id="path47" />
      <path
         d="M20 28v92h80c4.434 0 8-3.566 8-8V36c0-4.434-3.566-8-8-8zm0 0"
         fill="#1d60b5"
         id="path49" />
      <path
         d="M22 48v70h78c4.434 0 8-3.566 8-8V56c0-4.434-3.566-8-8-8zm0 0"
         fill="url(#e)"
         id="path51" />
      <path
         d="M20 28v84h80c4.434 0 8-3.566 8-8V36c0-4.434-3.566-8-8-8zm0 0"
         fill="#2864b0"
         id="path53" />
      <path
         d="M20 8v102h80c4.434 0 8-3.566 8-8V16c0-4.434-3.566-8-8-8zm0 0"
         fill="#3584e4"
         id="path55" />
      <use
         xlink:href="#f"
         mask="url(#g)"
         id="use57" />
      <path
         d="M59.742 60.09c0 1.86.39 3.324 1.176 4.394.8 1.07 1.883 1.61 3.242 1.61 1.344 0 2.414-.54 3.215-1.61.8-1.086 1.2-2.55 1.2-4.394 0-1.828-.407-3.27-1.223-4.324-.801-1.075-1.88-1.61-3.239-1.61-1.328 0-2.394.535-3.195 1.61-.785 1.054-1.176 2.496-1.176 4.324zm9.285 6.816a5.233 5.233 0 0 1-2.195 2.516c-.996.59-2.168.883-3.512.883-2.597 0-4.71-.938-6.34-2.809-1.617-1.887-2.425-4.34-2.425-7.36 0-3.019.816-5.476 2.445-7.363 1.633-1.886 3.738-2.832 6.32-2.832 1.344 0 2.516.305 3.512.907a5.25 5.25 0 0 1 2.195 2.515v-2.968h4.735v15.699c1.87-.29 3.343-1.188 4.418-2.696 1.07-1.527 1.605-3.472 1.605-5.843 0-1.512-.219-2.922-.656-4.239a11.453 11.453 0 0 0-1.992-3.644c-1.434-1.844-3.23-3.262-5.39-4.258-2.145-.996-4.47-1.496-6.977-1.496-1.75 0-3.426.234-5.028.703a16 16 0 0 0-4.441 2.016 15.584 15.584 0 0 0-5.23 5.754c-1.239 2.34-1.856 4.875-1.856 7.609 0 2.25.398 4.363 1.2 6.34a15.775 15.775 0 0 0 3.51 5.21 15.44 15.44 0 0 0 5.184 3.376c1.965.785 4.055 1.176 6.278 1.176 1.902 0 3.804-.352 5.707-1.063 1.902-.71 3.523-1.668 4.867-2.875l2.426 3.668a21.37 21.37 0 0 1-6.184 3.352 20.17 20.17 0 0 1-6.773 1.18c-2.793 0-5.426-.5-7.903-1.497a19.874 19.874 0 0 1-6.617-4.305 19.255 19.255 0 0 1-4.414-6.546c-1.012-2.489-1.52-5.164-1.52-8.016 0-2.75.516-5.367 1.544-7.86a19.745 19.745 0 0 1 4.39-6.57 20.335 20.335 0 0 1 6.637-4.347 20.817 20.817 0 0 1 7.883-1.54c3.382 0 6.457.649 9.218 1.946a18.333 18.333 0 0 1 6.93 5.574 16.307 16.307 0 0 1 2.563 4.824c.586 1.723.882 3.532.882 5.434 0 4.094-1.23 7.273-3.691 9.539-2.465 2.262-5.937 3.395-10.422 3.395h-.883zm0 0"
         fill="#fff"
         id="path59" />
    </g>
    <clipPath
       id="h">
      <path
         d="M0 0h128v128H0z"
         id="path62" />
    </clipPath>
    <g
       id="j"
       clip-path="url(#h)"
       filter="url(#a)">
      <use
         xlink:href="#i"
         id="use65" />
    </g>
    <mask
       id="s">
      <use
         xlink:href="#j"
         id="use68" />
    </mask>
    <mask
       id="o">
      <g
         filter="url(#a)"
         id="g73">
        <path
           fill-opacity=".8"
           d="M0 0h128v128H0z"
           id="path71" />
      </g>
    </mask>
    <linearGradient
       id="l"
       gradientUnits="userSpaceOnUse"
       x1="300"
       y1="235"
       x2="428"
       y2="235"
       gradientTransform="matrix(0 .37 -.98462 0 295.385 -30.36)">
      <stop
         offset="0"
         stop-color="#f9f06b"
         id="stop76" />
      <stop
         offset="1"
         stop-color="#f5c211"
         id="stop78" />
    </linearGradient>
    <clipPath
       id="k">
      <path
         d="M0 0h128v128H0z"
         id="path81" />
    </clipPath>
    <g
       id="n"
       clip-path="url(#k)">
      <path
         d="M128 80.64V128H0V80.64zm0 0"
         fill="url(#l)"
         id="path84" />
      <path
         d="M13.309 80.64L60.664 128H81.88l-47.36-47.36zm42.421 0L103.094 128h21.215L76.945 80.64zm42.43 0L128 110.48V89.27l-8.629-8.63zM0 88.548v21.215L18.238 128h21.215zm0 0"
         id="path86" />
    </g>
    <clipPath
       id="m">
      <path
         d="M0 0h128v128H0z"
         id="path89" />
    </clipPath>
    <g
       id="r"
       clip-path="url(#m)">
      <use
         xlink:href="#n"
         mask="url(#o)"
         id="use92" />
    </g>
  </defs>
  <path
     id="path161554"
     style="fill:#1e2e38;fill-opacity:1;stroke-width:0.0653935"
     d="M 97,14.735853 96,15 96.0078,15.05078 C 95.676419,15.017903 95.340329,15 95,15 H 85 50 40 v 10 80 7 h -3 l 3,3 h 10 35 10 c 5.54,0 10,-4.46 10,-10 V 25 c 0,-2.811906 -1.15179,-5.342773 -3.00781,-7.15625 l 0.004,-0.002 -2.797689,-2.795375 z"
     sodipodi:nodetypes="cccsccccccccccssscccc" />
  <path
     id="path161574"
     style="fill:#283e50;fill-opacity:1;stroke-width:0.0653935"
     d="m 37,12 v 10 80 10 h 10 35 10 c 5.54,0 10,-4.46 10,-10 V 22 C 102,16.46 97.54,12 92,12 H 82 47 Z" />
  <path
     id="rect165862"
     style="fill:#808080;stroke-width:0.0695103"
     d="m 37,21 h 61.000008 v 87 H 40.112082 40 l -3,-5.01912 z"
     sodipodi:nodetypes="ccccccc" />
  <path
     id="rect165860"
     style="fill:#bfbfbf;stroke-width:0.0664988"
     d="m 40,18 h 55 v 91 H 39.973458 40 l -3,-6 h 3 v -0.0257 z"
     sodipodi:nodetypes="ccccccccc" />
  <path
     id="rect165480"
     style="fill:#e9e9e9;stroke-width:0.0637377"
     d="m 37,15 h 55 v 87.66602 L 42,102.97431 37,103 Z"
     sodipodi:nodetypes="cccccc" />
  <path
     id="path202689"
     style="fill:#3a3a3a;stroke-width:0.15"
     d="M 46,28.75 A 3.75,3.75 0 0 1 42.25,32.5 3.75,3.75 0 0 1 38.5,28.75 3.75,3.75 0 0 1 42.25,25 3.75,3.75 0 0 1 46,28.75 Z" />
  <path
     id="ellipse203731"
     style="fill:#7b7b7b;fill-opacity:1;stroke:none;stroke-width:0.241958;stroke-opacity:1"
     d="m 35,25 c 0,0 -5,0 -5,5 0,5 5,5 5,5 h 2 v -1 -4 l 2.582031,-0.002 C 40.036206,30.605751 40.741765,30.974337 41.5,31 42.880712,31 44,29.880712 44,28.5 44,25 40.5,25 40.5,25 c -0.02222,0.0056 -0.04435,0.01142 -0.06641,0.01758 V 25 Z"
     sodipodi:nodetypes="csccccccccccc" />
  <path
     id="rect217403"
     style="fill:#676767;fill-opacity:1;stroke:none;stroke-width:0.1;stroke-opacity:1"
     d="m 32.174364,31.01389 c 0.13139,0.368199 0.332467,0.70274 0.587508,0.987899 0.07031,0.07861 0.144723,0.153474 0.222907,0.224252 C 33.516569,32.707459 34.222865,33 35,33 h 1 c 0.352917,0 0.68601,-0.07069 1,-0.181641 V 30 H 33.01181 C 32,30 32.174364,31.01389 32.174364,31.01389 Z"
     sodipodi:nodetypes="csssscccc" />
  <path
     id="path219471"
     style="fill:#5a5a5a;fill-opacity:1;stroke:none;stroke-width:0.1;stroke-opacity:1"
     d="m 34.5,30 c 0,1.490412 1.079274,2.711159 2.5,2.949219 V 30 Z" />
  <path
     id="circle230782"
     style="fill:#3a3a3a;stroke-width:0.15"
     d="M 46,83.75 A 3.75,3.75 0 0 1 42.25,87.5 3.75,3.75 0 0 1 38.5,83.75 3.75,3.75 0 0 1 42.25,80 3.75,3.75 0 0 1 46,83.75 Z" />
  <path
     id="path230784"
     style="fill:#7b7b7b;fill-opacity:1;stroke:none;stroke-width:0.241958;stroke-opacity:1"
     d="m 35,80 c 0,0 -5,0 -5,5 0,5 5,5 5,5 h 2 v -1 -4 l 2.582031,-0.002 C 40.036206,85.605751 40.741765,85.974337 41.5,86 42.880712,86 44,84.880712 44,83.5 44,80 40.5,80 40.5,80 c -0.02222,0.0056 -0.04435,0.01142 -0.06641,0.01758 V 80 Z"
     sodipodi:nodetypes="csccccccccccc" />
  <path
     id="path230786"
     style="fill:#676767;fill-opacity:1;stroke:none;stroke-width:0.1;stroke-opacity:1"
     d="m 32.174364,86.01389 c 0.13139,0.368199 0.332467,0.70274 0.587508,0.987899 0.07031,0.07861 0.144723,0.153474 0.222907,0.224252 C 33.516569,87.707459 34.222865,88 35,88 h 1 c 0.352917,0 0.68601,-0.07069 1,-0.181641 V 85 H 33.01181 C 32,85 32.174364,86.01389 32.174364,86.01389 Z"
     sodipodi:nodetypes="csssscccc" />
  <path
     id="path230788"
     style="fill:#5a5a5a;fill-opacity:1;stroke:none;stroke-width:0.1;stroke-opacity:1"
     d="m 34.5,85 c 0,1.490412 1.079274,2.711159 2.5,2.949219 V 85 Z" />
  <path
     id="circle230792"
     style="fill:#3a3a3a;stroke-width:0.15"
     d="M 46,56.25 A 3.75,3.75 0 0 1 42.25,60 3.75,3.75 0 0 1 38.5,56.25 3.75,3.75 0 0 1 42.25,52.5 3.75,3.75 0 0 1 46,56.25 Z" />
  <path
     id="path230794"
     style="fill:#7b7b7b;fill-opacity:1;stroke:none;stroke-width:0.241958;stroke-opacity:1"
     d="m 35,52.5 c 0,0 -5,0 -5,5 0,5 5,5 5,5 h 2 v -1 -4 l 2.582031,-0.002 c 0.454175,0.607751 1.159734,0.976337 1.917969,1.002 1.380712,0 2.5,-1.119288 2.5,-2.5 0,-3.5 -3.5,-3.5 -3.5,-3.5 -0.02222,0.0056 -0.04435,0.01142 -0.06641,0.01758 V 52.5 Z"
     sodipodi:nodetypes="csccccccccccc" />
  <path
     id="path230796"
     style="fill:#676767;fill-opacity:1;stroke:none;stroke-width:0.1;stroke-opacity:1"
     d="m 32.174364,58.51389 c 0.13139,0.368199 0.332467,0.70274 0.587508,0.987899 0.07031,0.07861 0.144723,0.153474 0.222907,0.224252 C 33.516569,60.207459 34.222865,60.5 35,60.5 h 1 c 0.352917,0 0.68601,-0.07069 1,-0.181641 V 57.5 H 33.01181 C 32,57.5 32.174364,58.51389 32.174364,58.51389 Z"
     sodipodi:nodetypes="csssscccc" />
  <path
     id="path230798"
     style="fill:#5a5a5a;fill-opacity:1;stroke:none;stroke-width:0.1;stroke-opacity:1"
     d="m 34.5,57.5 c 0,1.490412 1.079274,2.711159 2.5,2.949219 V 57.5 Z" />
  <path
     id="rect142315"
     style="fill:#272727;stroke-width:0.1"
     transform="rotate(-30)"
     d="m 31.961525,64.641014 h 7 c 1.108,0 2,0.892 2,2 v 75.999996 c 0,1.108 -0.892,2 -2,2 h -7 c -1.108,0 -2,-0.892 -2,-2 V 66.641014 c 0,-1.108 0.892,-2 2,-2 z" />
  <path
     id="path142317"
     style="fill:#343434;fill-opacity:1;stroke-width:0.1"
     d="m 61.732051,39 2.598076,-1.5 c -1.732051,1 -0.732051,2.732051 -0.732051,2.732051 l 1.5,2.598076 36.500004,63.219853 c 1,1.73205 2.73205,0.73205 2.73205,0.73205 l -2.59808,1.5 C 100,109.28203 99,107.54998 99,107.54998 L 61,41.732051 C 60,40 61.732051,39 61.732051,39 Z"
     sodipodi:nodetypes="cccccccccc" />
  <path
     id="path142319"
     style="fill:#ccaa21;fill-opacity:1;stroke-width:0.0707106"
     d="m 56.866025,32.571797 4.330127,-2.5 c 0,0 0.866026,-0.5 1.366026,0.366025 L 66.062178,36.5 60,40 56.5,33.937822 c -0.5,-0.866025 0.366025,-1.366025 0.366025,-1.366025 z"
     sodipodi:nodetypes="ccccccc" />
  <path
     id="path142321"
     style="fill:#7d7d7d;fill-opacity:1;stroke-width:0.0707106"
     d="m 51.598076,19.447441 0.866025,-0.5 c 1.410759,1.109408 5.598077,3.696153 6.098077,4.562178 l 3.006439,5.207305 c 0,0 0.5,0.866025 -0.366026,1.366025 l -4.306076,2.486115 C 56.006439,33.082949 55.5,32.205771 55.5,32.205771 l -3,-5.196152 C 52,26.143594 51.85322,21.223902 51.598076,19.447441 Z"
     sodipodi:nodetypes="ccccccccc" />
  <path
     id="path142323"
     style="fill:#939393;fill-opacity:1;stroke-width:0.0707106"
     d="m 51.598076,19.447441 0.866025,-0.5 7.872465,11.635508 -3.440051,1.986115 C 56.006439,33.082949 55.5,32.205771 55.5,32.205771 l -3,-5.196152 C 52,26.143594 51.85322,21.223902 51.598076,19.447441 Z"
     sodipodi:nodetypes="ccccccc" />
  <path
     style="fill:#9f9f9f;fill-opacity:1;stroke:none;stroke-width:1px;stroke-linecap:butt;stroke-linejoin:miter;stroke-opacity:1"
     d="m 51.598076,19.447441 1.515443,6.053526 c 0.08189,0.445376 0.252506,1.008652 0.252506,1.008652 l 3,5.196152 c 0.5,0.866026 1.366026,0.366026 1.366026,0.366026 l 2.598076,-1.5 -3.5,-6.062178 c -0.243366,-0.421521 -0.615277,-0.79947 -0.615277,-0.79947 l -3.750749,-4.762708 z"
     id="path142325"
     sodipodi:nodetypes="cccccccccc" />
  <path
     id="rect142327"
     style="fill:#0a0a0a;stroke-width:0.00243332"
     d="m 52.737116,21.420315 -0.706437,-2.222637 1.599292,1.769109 v 0 l 3.33413,5.774883 -0.866025,0.5 z"
     sodipodi:nodetypes="cccccccc" />
  <path
     id="circle142329"
     style="fill:#0a0a0a;stroke-width:0.15"
     transform="rotate(-30)"
     d="m 36.997425,50.516663 a 1.5,1.5 0 0 1 -1.5,1.5 1.5,1.5 0 0 1 -1.5,-1.5 1.5,1.5 0 0 1 1.5,-1.5 1.5,1.5 0 0 1 1.5,1.5 z" />
  <path
     id="path142331"
     style="fill:#1a1a1a;fill-opacity:1;stroke-width:0.1"
     d="m 66.062178,36.5 -1.732051,1 c 1.732051,-1 2.732051,0.732051 2.732051,0.732051 l 1.5,2.598076 36.500002,63.219853 c 1,1.73205 -0.73205,2.73205 -0.73205,2.73205 l 1.73205,-1 c 1.73205,-1 0.73205,-2.73205 0.73205,-2.73205 L 68.794228,37.232051 C 67.794228,35.5 66.062178,36.5 66.062178,36.5 Z"
     sodipodi:nodetypes="cccccccccc" />
  <path
     id="path142333"
     style="fill:#dec45f;fill-opacity:1;stroke-width:0.0707106"
     d="m 57.732051,32.071797 0.866025,-0.5 4,6.928203 -1.732051,1 -3.5,-6.062178 c -0.5,-0.866025 0.366026,-1.366025 0.366026,-1.366025 z"
     sodipodi:nodetypes="cccccc" />
  <path
     id="path142335"
     style="fill:#957d1f;fill-opacity:1;stroke-width:0.0707106"
     d="m 59.464101,31.071797 1.732051,-1 c 0,0 0.866026,-0.5 1.366026,0.366025 l 3.5,6.062178 -1.732051,1 -3.5,-6.062178 c -0.5,-0.866025 -1.366026,-0.366025 -1.366026,-0.366025 z"
     sodipodi:nodetypes="ccccccc" />
  <path
     id="path99105"
     style="fill:#0a0a0a;fill-opacity:1;stroke-width:0.1"
     d="m 64.998047,65 c -5,0 -5,5 -5,5 v 5 H 65 v 5 h -0.002 c -4.939157,0 -4.995362,4.843133 -4.996094,5 h -0.0039 V 85.039062 109.96094 110 c 0,0 0,5 5,5 H 110 c 5,0 5,-5 5,-5 V 85 c 0,-5 -5,-5 -5,-5 v -5 h 5 v -5 c 0,0 0,-5 -5,-5 z" />
  <path
     id="path16235"
     style="fill:#151515;fill-opacity:1;stroke-width:0.1"
     d="m 80,80 h 30 c 0,0 5,0 5,5 v 25 H 75 V 85 c 0,-5 5,-5 5,-5 z"
     sodipodi:nodetypes="ccccccc" />
  <path
     id="rect1819"
     style="fill:#0a0a0a;fill-opacity:1;stroke-width:0.1"
     d="m 60,110 h 55 c 0,0 0,5 -5,5 H 65 c -5,0 -5,-5 -5,-5 z"
     sodipodi:nodetypes="ccccc" />
  <path
     id="rect1821"
     style="fill:#151515;stroke-width:0.0790569"
     d="m 70,75 h 25 v 5 H 70 Z" />
  <path
     id="rect3669"
     style="fill:#272727;fill-opacity:1;stroke-width:0.1"
     d="m 70,80 h 25 c 0,0 5,0 5,5 v 25 H 65 V 85 c 0,-5 0,-5 5,-5 z"
     sodipodi:nodetypes="ccccccc" />
  <path
     id="path4516"
     style="fill:#1a1a1a;fill-opacity:1;stroke-width:0.1"
     d="m 60,75 h 55 V 70 H 60 Z"
     sodipodi:nodetypes="ccccc" />
  <path
     id="path4518"
     style="fill:#272727;fill-opacity:1;stroke-width:0.1"
     d="m 60,70 h 55 c 0,0 0,-5 -5,-5 H 65 c -5,0 -5,5 -5,5 z"
     sodipodi:nodetypes="ccccc" />
  <path
     id="path13331"
     style="fill:#3a3a3a;fill-opacity:1;stroke-width:0.1"
     d="m 75,80 h 5 c 0,0 -5,0 -5,5 v 25 H 70 V 85 c 0,-5 5,-5 5,-5 z"
     sodipodi:nodetypes="ccccccc" />
  <path
     id="path18384"
     style="fill:#151515;fill-opacity:1;stroke-width:0.1"
     d="m 65,110 h 35 c 0,0 0,5 -5,5 H 70 c -5,0 -5,-5 -5,-5 z"
     sodipodi:nodetypes="ccccc" />
  <path
     id="path13488"
     style="fill:#272727;fill-opacity:1;stroke-width:0.1"
     d="m 75,115 h 5 c 0,0 -5,0 -5,-5 v 0 h -5 v 0 c 0,5 5,5 5,5 z"
     sodipodi:nodetypes="ccccccc" />
  <path
     id="rect13512"
     style="fill:#272727;stroke-width:0.1"
     d="m 75,75 h 5 v 5 h -5 z" />
  <path
     id="rect13594"
     style="fill:#272727;stroke-width:0.0999997"
     d="m 70,70 h 5 v 5 h -5 z" />
  <path
     id="rect21725"
     style="fill:#0a0a0a;stroke-width:0.0612372"
     d="m 95,75 h 15 v 5 H 95 Z" />
  <path
     id="rect22457"
     style="fill:#0a0a0a;stroke-width:0.0353553"
     d="m 65,75 h 5 v 5 h -5 z" />
  <path
     id="rect81298"
     style="color:#000000;fill:#151515;stroke-width:0.1"
     d="m 65,80 c -4.939157,0 -4.995362,4.843133 -4.996094,5 H 60 V 85.039062 109.96094 110 H 60.0039 65 V 85 c 0,0 0,-5 5,-5 z"
     sodipodi:nodetypes="scccccccccs" />
  <path
     id="path95656"
     style="fill:#3a3a3a;fill-opacity:1;stroke-width:0.1"
     d="m 75,65 h 5 c 0,0 -5,0 -5,5 v 0 h -5 v 0 c 0,-5 5,-5 5,-5 z"
     sodipodi:nodetypes="ccccccc" />
  <path
     id="rect142361"
     style="fill:#1a1a1a;stroke-width:0.146385;fill-opacity:1"
     d="M 71,63 83.721053,63.08607 84.826061,65 H 72.124355 Z"
     sodipodi:nodetypes="ccccc" />
  <path
     id="path146538"
     style="fill:#0a0a0a;fill-opacity:1;stroke-width:0.146385"
     d="m 71.562177,64 h 12.68152 l 0.582364,1 -12.701724,-3.2e-5 z"
     sodipodi:nodetypes="ccccc" />
</svg>
